# xmcd
# 
# Track frame offsets:
#     150
#     23018
#     36148
#     55890
#     80348
#     96193
#     114573
#     128663
#     168535
#     192710
#     217930
# 
# Disc length: 3301
# 
# Revision: 3
# Processed by: cddbd v1.5.2PL0 Copyright (c) Steve Scherf et al.
# Submitted via: fre:ac v1.0.31
# 
DISCID=900ce30b
DTITLE=Callier Terry - The New Folk Sound Of Terry Callier
DYEAR=1965
DGENRE=American Folk
TTITLE0=900 Miles
TTITLE1=Oh Dear, What Can The Matter Be
TTITLE2=Johnny Be Gay If You Can Be
TTITLE3=Cotton Eyed Joe
TTITLE4=It's About Time
TTITLE5=Promenade In Green
TTITLE6=Spin Spin Spin
TTITLE7=I'm A Drifter
TTITLE8=Be My Woman [Bonus]
TTITLE9=Jack O' Diamonds [Bonus]
TTITLE10=The Golden Apples Of The Sun [Bonus]
EXTD=
EXTT0=
EXTT1=
EXTT2=
EXTT3=
EXTT4=
EXTT5=
EXTT6=
EXTT7=
EXTT8=
EXTT9=
EXTT10=
PLAYORDER=
